<?xml version="1.0" encoding="UTF-8"?>
<svg width="240" height="240" viewBox="0 0 240 240" fill="none" xmlns="http://www.w3.org/2000/svg">
  <rect width="240" height="240" rx="32" fill="#0F172A"/>
  <path d="M120 60C86.8629 60 60 86.8629 60 120C60 153.137 86.8629 180 120 180C153.137 180 180 153.137 180 120C180 86.8629 153.137 60 120 60ZM120 72C146.51 72 168 93.4903 168 120C168 146.51 146.51 168 120 168C93.4903 168 72 146.51 72 120C72 93.4903 93.4903 72 120 72Z" fill="#3B82F6"/>
  <path d="M120 84C100.118 84 84 100.118 84 120C84 139.882 100.118 156 120 156C139.882 156 156 139.882 156 120C156 100.118 139.882 84 120 84ZM120 96C133.255 96 144 106.745 144 120C144 133.255 133.255 144 120 144C106.745 144 96 133.255 96 120C96 106.745 106.745 96 120 96Z" fill="#60A5FA"/>
  <path d="M120 108C113.373 108 108 113.373 108 120C108 126.627 113.373 132 120 132C126.627 132 132 126.627 132 120C132 113.373 126.627 108 120 108Z" fill="#93C5FD"/>
  <path d="M190 80L210 100M210 80L190 100" stroke="#F43F5E" stroke-width="8" stroke-linecap="round"/>
  <path d="M30 140L50 160M50 140L30 160" stroke="#F43F5E" stroke-width="8" stroke-linecap="round"/>
  <path d="M170 170L190 190M190 170L170 190" stroke="#F43F5E" stroke-width="8" stroke-linecap="round"/>
  <path d="M50 50L70 70M70 50L50 70" stroke="#F43F5E" stroke-width="8" stroke-linecap="round"/>
</svg>
